<?xml version="1.0" standalone="no"?>
<!DOCTYPE svg PUBLIC "-//W3C//DTD SVG 1.1//EN" "http://www.w3.org/Graphics/SVG/1.1/DTD/svg11.dtd">
<svg t="1687606685634" class="icon" viewBox="0 0 1024 1024" version="1.1" xmlns="http://www.w3.org/2000/svg" p-id="2461" xmlns:xlink="http://www.w3.org/1999/xlink" width="16" height="16"><path d="M754.521 810.307h55.967v55.967h-55.967v-55.967z" fill="#1296db" p-id="2462"></path><path d="M232.169 810.307h55.967v55.967h-55.967v-55.967z" fill="#1296db" p-id="2463"></path><path d="M344.101 810.307h55.967v55.967h-55.967v-55.967z" fill="#1296db" p-id="2464"></path><path d="M559.543 810.307h55.967v55.967h-55.967v-55.967z" fill="#1296db" p-id="2465"></path><path d="M754.521 530.476h55.967v55.967h-55.967v-55.967z" fill="#1296db" p-id="2466"></path><path d="M754.521 679.719h55.967v55.967h-55.967v-55.967z" fill="#1296db" p-id="2467"></path><path d="M232.169 381.232h55.967v55.967h-55.967v-55.967z" fill="#1296db" p-id="2468"></path><path d="M344.101 381.232h55.967v55.967h-55.967v-55.967z" fill="#1296db" p-id="2469"></path><path d="M232.169 530.476h55.967v55.967h-55.967v-55.967z" fill="#1296db" p-id="2470"></path><path d="M344.101 530.476h55.967v55.967h-55.967v-55.967z" fill="#1296db" p-id="2471"></path><path d="M232.169 679.719h55.967v55.967h-55.967v-55.967z" fill="#1296db" p-id="2472"></path><path d="M344.101 679.719h55.967v55.967h-55.967v-55.967z" fill="#1296db" p-id="2473"></path><path d="M559.543 679.719h55.967v55.967h-55.967v-55.967z" fill="#1296db" p-id="2474"></path><path d="M866.402 418.543h-167.796c-20.693 0-37.362 16.69-37.362 37.277v111.966h-149.244v-261.155c0-20.769-16.659-37.332-37.209-37.332h-18.757c0-0.037 0-0.074 0-0.111v-55.746c0-20.883-16.637-37.421-37.159-37.421h-74.773v-83.829c0-15.483-12.528-28.103-27.983-28.103-15.562 0-27.983 12.582-27.983 28.103v83.83h-74.773c-20.493 0-37.159 16.754-37.159 37.421v55.746c0 0.037 0 0.074 0 0.111h-18.757c-20.375 0-37.209 16.714-37.209 37.332v652.898c0 0.007 0 0.014 0 0.021h55.967v-634.286h55.967v-93.277h167.899v93.277h55.967v634.285h55.967v-335.798h150.255v335.798h54.955v-485.042h130.588v485.041h55.967v-503.73c-0.002-20.593-16.729-37.277-37.364-37.277z" fill="#1296db" p-id="2475"></path></svg>